<?xml version="1.0" encoding="utf-8"?>
<?xml-stylesheet type="text/xsl" href="rss1.xsl"?>
<rss version="2.0" xmlns:atom="http://www.w3.org/2005/Atom" xmlns:content="http://purl.org/rss/1.0/modules/content/" xmlns:dc="http://purl.org/dc/elements/1.1/" xmlns:media="http://search.yahoo.com/mrss/">
<channel>
 <title>Getty</title>
 <link>http://www.gettyimg.com/</link>
 <atom:link href="http://www.gettyimg.com/" rel="self" type="application/rss+xml" />

 
                <item>
                <title><![CDATA[【Cinema Center】MOVIE - Peter Pan and Wendy (2023) 2160p WEB-DL HDR10 DV DDP5.1 Atmos]]></title>
                <link><![CDATA[https://sharemania.us/threads/peter-pan-and-wendy-2023-2160p-web-dl-hdr10-dv-ddp5-1-atmos.220037/]]></link>
                <description><![CDATA[<article>
<blockquote class="messageText SelectQuoteContainer ugc baseHtml">
<img src="https://images2.imgbox.com/62/77/eWuDHFAM_o.jpg" class="bbCodeImage LbImage" alt="[​IMG]" data-url="https://images2.imgbox.com/62/77/eWuDHFAM_o.jpg" style=""> <br>
<div class="ToggleTriggerAnchor bbCodeSpoilerContainer">
<button type="button" class="button bbCodeSpoilerButton ToggleTrigger Tooltip JsOnly" data-target="> .SpoilerTarget"><span>Spoiler: <span class="SpoilerTitle">MediaInfo</span></span></button>
<div class="SpoilerTarget bbCodeSpoilerText">Video<br>
ID : 1<br>
Format : HEVC<br>
Format/Info : High Efficiency Video Coding<br>
Format profile : Main 10@L5@High<br>
HDR format : Dolby Vision, Version 1.0, dvhe.08.06, BL+RPU, HDR10 compatible / SMPTE ST 2086, HDR10 compatible<br>
Codec ID : V_MPEGH/ISO/HEVC<br>
Duration : 1 h 43 min<br>
Bit rate : 13.4 Mb/s<br>
Width : 3 840 pixels<br>
Height : 2 160 pixels<br>
Display aspect ratio : 16:9<br>
Frame rate mode : Constant<br>
Frame rate : 24.000 FPS<br>
Color space : YUV<br>
Chroma subsampling : 4:2:0<br>
Bit depth : 10 bits<br>
Bits/(Pixel*Frame) : 0.068<br>
Stream size : 9.70 GiB (95%)<br>
Language : English<br>
Default : Yes<br>
Forced : No<br>
Color range : Limited<br>
Color primaries : BT.2020<br>
Transfer characteristics : PQ<br>
Matrix coefficients : BT.2020 non-constant<br>
Mastering display color primaries : BT.2020<br>
Mastering display luminance : min: 0.0000 cd/m2, max: 1000 cd/m2<br>
<br>
Audio<br>
ID : 2<br>
Format : E-AC-3 JOC<br>
Format/Info : Enhanced AC-3 with Joint Object Coding<br>
Commercial name : Dolby Digital Plus with Dolby Atmos<br>
Codec ID : A_EAC3<br>
Duration : 1 h 43 min<br>
Bit rate mode : Constant<br>
Bit rate : 768 kb/s<br>
Channel(s) : 6 channels<br>
Channel layout : L R C LFE Ls Rs<br>
Sampling rate : 48.0 kHz<br>
Frame rate : 31.250 FPS (1536 SPF)<br>
Compression mode : Lossy<br>
Stream size : 568 MiB (5%)<br>
Language : English<br>
Service kind : Complete Main<br>
Default : Yes<br>
Forced : No<br>
Complexity index : 16<br>
Number of dynamic objects : 15<br>
Bed channel count : 1 channel<br>
Bed channel configuration : LFE<br>
<br>
Text #1<br>
ID : 3<br>
Format : UTF-8<br>
Codec ID : S_TEXT/UTF8<br>
Codec ID/Info : UTF-8 Plain Text<br>
Duration : 1 h 41 min<br>
Bit rate : 44 b/s<br>
Frame rate : 0.212 FPS<br>
Count of elements : 1295<br>
Stream size : 32.9 KiB (0%)<br>
Title : SDH<br>
Language : English<br>
Default : No<br>
Forced : No<br>
<br>
Text #2<br>
ID : 4<br>
Format : UTF-8<br>
Codec ID : S_TEXT/UTF8<br>
Codec ID/Info : UTF-8 Plain Text<br>
Duration : 1 h 41 min<br>
Bit rate : 38 b/s<br>
Frame rate : 0.182 FPS<br>
Count of elements : 1110<br>
Stream size : 28.9 KiB (0%)<br>
Language : English<br>
Default : No<br>
Forced : No<br>
<br>
Text #3<br>
ID : 5<br>
Format : UTF-8<br>
Codec ID : S_TEXT/UTF8<br>
Codec ID/Info : UTF-8 Plain Text<br>
Duration : 1 h 42 min<br>
Bit rate : 34 b/s<br>
Frame rate : 0.180 FPS<br>
Count of elements : 1107<br>
Stream size : 26.1 KiB (0%)<br>
Language : Czech<br>
Default : No<br>
Forced : No<br>
<br>
Text #4<br>
ID : 6<br>
Format : UTF-8<br>
Codec ID : S_TEXT/UTF8<br>
Codec ID/Info : UTF-8 Plain Text<br>
Duration : 1 h 42 min<br>
Bit rate : 37 b/s<br>
Frame rate : 0.137 FPS<br>
Count of elements : 843<br>
Stream size : 27.8 KiB (0%)<br>
Language : Danish<br>
Default : No<br>
Forced : No<br>
<br>
Text #5<br>
ID : 7<br>
Format : UTF-8<br>
Codec ID : S_TEXT/UTF8<br>
Codec ID/Info : UTF-8 Plain Text<br>
Duration : 1 h 42 min<br>
Bit rate : 40 b/s<br>
Frame rate : 0.182 FPS<br>
Count of elements : 1119<br>
Stream size : 30.6 KiB (0%)<br>
Language : German<br>
Default : No<br>
Forced : No<br>
<br>
Text #6<br>
ID : 8<br>
Format : UTF-8<br>
Codec ID : S_TEXT/UTF8<br>
Codec ID/Info : UTF-8 Plain Text<br>
Duration : 1 h 42 min<br>
Bit rate : 64 b/s<br>
Frame rate : 0.180 FPS<br>
Count of elements : 1105<br>
Stream size : 48.6 KiB (0%)<br>
Language : Greek<br>
Default : No<br>
Forced : No<br>
<br>
Text #7<br>
ID : 9<br>
Format : UTF-8<br>
Codec ID : S_TEXT/UTF8<br>
Codec ID/Info : UTF-8 Plain Text<br>
Duration : 1 h 42 min<br>
Bit rate : 37 b/s<br>
Frame rate : 0.178 FPS<br>
Count of elements : 1094<br>
Stream size : 28.2 KiB (0%)<br>
Language : Spanish<br>
Default : No<br>
Forced : No<br>
<br>
Text #8<br>
ID : 10<br>
Format : UTF-8<br>
Codec ID : S_TEXT/UTF8<br>
Codec ID/Info : UTF-8 Plain Text<br>
Duration : 1 h 42 min<br>
Bit rate : 38 b/s<br>
Frame rate : 0.180 FPS<br>
Count of elements : 1102<br>
Stream size : 28.8 KiB (0%)<br>
Title : Latin American<br>
Language : Spanish<br>
Default : No<br>
Forced : No<br>
<br>
Text #9<br>
ID : 11<br>
Format : UTF-8<br>
Codec ID : S_TEXT/UTF8<br>
Codec ID/Info : UTF-8 Plain Text<br>
Duration : 1 h 42 min<br>
Bit rate : 34 b/s<br>
Frame rate : 0.175 FPS<br>
Count of elements : 1076<br>
Stream size : 26.0 KiB (0%)<br>
Language : Finnish<br>
Default : No<br>
Forced : No<br>
<br>
Text #10<br>
ID : 12<br>
Format : UTF-8<br>
Codec ID : S_TEXT/UTF8<br>
Codec ID/Info : UTF-8 Plain Text<br>
Duration : 1 h 41 min<br>
Bit rate : 37 b/s<br>
Frame rate : 0.171 FPS<br>
Count of elements : 1044<br>
Stream size : 28.1 KiB (0%)<br>
Language : French<br>
Default : No<br>
Forced : No<br>
<br>
Text #11<br>
ID : 13<br>
Format : UTF-8<br>
Codec ID : S_TEXT/UTF8<br>
Codec ID/Info : UTF-8 Plain Text<br>
Duration : 1 h 42 min<br>
Bit rate : 38 b/s<br>
Frame rate : 0.180 FPS<br>
Count of elements : 1104<br>
Stream size : 28.6 KiB (0%)<br>
Language : Hungarian<br>
Default : No<br>
Forced : No<br>
<br>
Text #12<br>
ID : 14<br>
Format : UTF-8<br>
Codec ID : S_TEXT/UTF8<br>
Codec ID/Info : UTF-8 Plain Text<br>
Duration : 1 h 42 min<br>
Bit rate : 37 b/s<br>
Frame rate : 0.179 FPS<br>
Count of elements : 1101<br>
Stream size : 28.3 KiB (0%)<br>
Language : Italian<br>
Default : No<br>
Forced : No<br>
<br>
Text #13<br>
ID : 15<br>
Format : UTF-8<br>
Codec ID : S_TEXT/UTF8<br>
Codec ID/Info : UTF-8 Plain Text<br>
Duration : 1 h 42 min<br>
Bit rate : 32 b/s<br>
Frame rate : 0.170 FPS<br>
Count of elements : 1042<br>
Stream size : 24.3 KiB (0%)<br>
Language : Japanese<br>
Default : No<br>
Forced : No<br>
<br>
Text #14<br>
ID : 16<br>
Format : UTF-8<br>
Codec ID : S_TEXT/UTF8<br>
Codec ID/Info : UTF-8 Plain Text<br>
Duration : 1 h 42 min<br>
Bit rate : 41 b/s<br>
Frame rate : 0.180 FPS<br>
Count of elements : 1107<br>
Stream size : 31.0 KiB (0%)<br>
Language : Korean<br>
Default : No<br>
Forced : No<br>
<br>
Text #15<br>
ID : 17<br>
Format : UTF-8<br>
Codec ID : S_TEXT/UTF8<br>
Codec ID/Info : UTF-8 Plain Text<br>
Duration : 1 h 42 min<br>
Bit rate : 33 b/s<br>
Frame rate : 0.155 FPS<br>
Count of elements : 949<br>
Stream size : 25.3 KiB (0%)<br>
Language : Dutch<br>
Default : No<br>
Forced : No<br>
<br>
Text #16<br>
ID : 18<br>
Format : UTF-8<br>
Codec ID : S_TEXT/UTF8<br>
Codec ID/Info : UTF-8 Plain Text<br>
Duration : 1 h 25 min<br>
Bit rate : 0 b/s<br>
Frame rate : 0.003 FPS<br>
Count of elements : 15<br>
Stream size : 351 Bytes (0%)<br>
Title : Flemish<br>
Language : Dutch<br>
Default : No<br>
Forced : No<br>
<br>
Text #17<br>
ID : 19<br>
Format : UTF-8<br>
Codec ID : S_TEXT/UTF8<br>
Codec ID/Info : UTF-8 Plain Text<br>
Duration : 1 h 42 min<br>
Bit rate : 34 b/s<br>
Frame rate : 0.180 FPS<br>
Count of elements : 1105<br>
Stream size : 26.1 KiB (0%)<br>
Language : Norwegian<br>
Default : No<br>
Forced : No<br>
<br>
Text #18<br>
ID : 20<br>
Format : UTF-8<br>
Codec ID : S_TEXT/UTF8<br>
Codec ID/Info : UTF-8 Plain Text<br>
Duration : 1 h 42 min<br>
Bit rate : 38 b/s<br>
Frame rate : 0.176 FPS<br>
Count of elements : 1080<br>
Stream size : 28.8 KiB (0%)<br>
Language : Polish<br>
Default : No<br>
Forced : No<br>
<br>
Text #19<br>
ID : 21<br>
Format : UTF-8<br>
Codec ID : S_TEXT/UTF8<br>
Codec ID/Info : UTF-8 Plain Text<br>
Duration : 1 h 42 min<br>
Bit rate : 37 b/s<br>
Frame rate : 0.180 FPS<br>
Count of elements : 1104<br>
Stream size : 28.0 KiB (0%)<br>
Language : Portuguese<br>
Default : No<br>
Forced : No<br>
<br>
Text #20<br>
ID : 22<br>
Format : UTF-8<br>
Codec ID : S_TEXT/UTF8<br>
Codec ID/Info : UTF-8 Plain Text<br>
Duration : 1 h 42 min<br>
Bit rate : 39 b/s<br>
Frame rate : 0.180 FPS<br>
Count of elements : 1107<br>
Stream size : 29.4 KiB (0%)<br>
Title : Brazilian<br>
Language : Portuguese<br>
Default : No<br>
Forced : No<br>
<br>
Text #21<br>
ID : 23<br>
Format : UTF-8<br>
Codec ID : S_TEXT/UTF8<br>
Codec ID/Info : UTF-8 Plain Text<br>
Duration : 1 h 42 min<br>
Bit rate : 37 b/s<br>
Frame rate : 0.178 FPS<br>
Count of elements : 1093<br>
Stream size : 28.0 KiB (0%)<br>
Language : Romanian<br>
Default : No<br>
Forced : No<br>
<br>
Text #22<br>
ID : 24<br>
Format : UTF-8<br>
Codec ID : S_TEXT/UTF8<br>
Codec ID/Info : UTF-8 Plain Text<br>
Duration : 1 h 42 min<br>
Bit rate : 36 b/s<br>
Frame rate : 0.180 FPS<br>
Count of elements : 1105<br>
Stream size : 27.3 KiB (0%)<br>
Language : Slovak<br>
Default : No<br>
Forced : No<br>
<br>
Text #23<br>
ID : 25<br>
Format : UTF-8<br>
Codec ID : S_TEXT/UTF8<br>
Codec ID/Info : UTF-8 Plain Text<br>
Duration : 1 h 42 min<br>
Bit rate : 30 b/s<br>
Frame rate : 0.180 FPS<br>
Count of elements : 1103<br>
Stream size : 22.9 KiB (0%)<br>
Language : Swedish<br>
Default : No<br>
Forced : No<br>
<br>
Text #24<br>
ID : 26<br>
Format : UTF-8<br>
Codec ID : S_TEXT/UTF8<br>
Codec ID/Info : UTF-8 Plain Text<br>
Duration : 1 h 42 min<br>
Bit rate : 37 b/s<br>
Frame rate : 0.180 FPS<br>
Count of elements : 1103<br>
Stream size : 27.9 KiB (0%)<br>
Language : Turkish<br>
Default : No<br>
Forced : No<br>
<br>
Text #25<br>
ID : 27<br>
Format : UTF-8<br>
Codec ID : S_TEXT/UTF8<br>
Codec ID/Info : UTF-8 Plain Text<br>
Duration : 1 h 42 min<br>
Bit rate : 34 b/s<br>
Frame rate : 0.180 FPS<br>
Count of elements : 1107<br>
Stream size : 26.1 KiB (0%)<br>
Title : Hong Kong<br>
Language : Chinese<br>
Default : No<br>
Forced : No<br>
<br>
Text #26<br>
ID : 28<br>
Format : UTF-8<br>
Codec ID : S_TEXT/UTF8<br>
Codec ID/Info : UTF-8 Plain Text<br>
Duration : 1 h 42 min<br>
Bit rate : 35 b/s<br>
Frame rate : 0.181 FPS<br>
Count of elements : 1109<br>
Stream size : 26.9 KiB (0%)<br>
Title : Traditional<br>
Language : Chinese<br>
Default : No<br>
Forced : No<br>
<br>
Menu<br>
01:35:22.167 : en:Credits</div>
</div>
<div class="bbCodeBlock bbCodeVfcHH HiddenContent">
<div class="attribution type">Hidden Content:</div>
<blockquote>You must reply before you can see the hidden data contained here.</blockquote>
</div>
<div class="messageTextEndMarker">&nbsp;</div>
</blockquote>
</article>]]></description>
                <author><![CDATA[Cauã]]></author>
                </item>

                </channel></rss>